<?xml version="1.0" encoding="UTF-8" standalone="no"?>
<!DOCTYPE svg PUBLIC "-//W3C//DTD SVG 1.1//EN" "http://www.w3.org/Graphics/SVG/1.1/DTD/svg11.dtd">
<svg width="100%" height="100%" viewBox="0 0 743 30" version="1.1" xmlns="http://www.w3.org/2000/svg" xmlns:xlink="http://www.w3.org/1999/xlink" xml:space="preserve" xmlns:serif="http://www.serif.com/" style="fill-rule:evenodd;clip-rule:evenodd;stroke-linejoin:round;stroke-miterlimit:2;">
    <rect id="Artboard1" x="0" y="0" width="742.5" height="29.678" style="fill:none;"/>
    <g id="Artboard11" serif:id="Artboard1">
        <path id="path9553" d="M55.125,15.63C56.879,15.772 685.621,15.772 687.375,15.63C698.173,14.753 704.013,13.999 711,12.578C723.252,10.087 733.54,6.1 740.947,0.971C741.718,0.437 742.384,0 742.425,0C742.466,0 742.5,0.683 742.5,1.517L742.5,3.035L740.278,5.455C739.056,6.786 738.002,7.965 737.937,8.075C737.871,8.185 738.179,8.064 738.621,7.805C739.585,7.242 741.642,6.184 742.142,5.994C742.474,5.867 742.5,5.893 742.499,6.341C742.499,6.805 742.432,6.859 740.921,7.625C739.143,8.528 737.136,9.808 735.406,11.144C733.916,12.296 728.065,18.676 726.958,20.358C725.227,22.986 723.419,26.62 722.706,28.902L722.464,29.678L721.269,28.626C718.354,26.056 715.079,24.262 710.66,22.813C707.697,21.841 704.92,21.215 700.8,20.592C699.166,20.345 43.232,20.36 41.7,20.592C37.58,21.215 34.803,21.841 31.84,22.813C27.421,24.262 24.146,26.056 21.231,28.626L20.036,29.678L19.794,28.902C19.081,26.62 17.273,22.986 15.542,20.358C14.435,18.676 8.584,12.296 7.094,11.144C5.364,9.808 3.357,8.528 1.579,7.625C0.068,6.859 0.001,6.805 0.001,6.341C0,5.893 0.026,5.867 0.358,5.994C0.858,6.184 2.915,7.242 3.879,7.805C4.321,8.064 4.629,8.185 4.563,8.075C4.498,7.965 3.444,6.786 2.222,5.455L0,3.035L0,1.517C0,0.683 0.034,0 0.075,0C0.116,0 0.782,0.437 1.553,0.971C8.96,6.1 19.248,10.087 31.5,12.578C38.487,13.999 44.327,14.753 55.125,15.63ZM687.375,17.2C687.045,17.251 55.455,17.251 55.125,17.2C54.795,17.148 53.141,17.001 51.45,16.872C37.775,15.835 25.144,13.314 15.375,9.672C9.989,7.665 6.076,5.73 1.125,2.627C0.681,2.349 0.682,2.353 1.212,2.935C6.157,8.366 8.902,11.301 10.882,13.275C12.207,14.595 13.816,16.37 14.458,17.219C16.753,20.25 18.766,23.706 19.96,26.663C20.234,27.343 20.483,27.9 20.513,27.9C20.542,27.9 21.018,27.537 21.571,27.093C26.219,23.356 32.256,21.077 41.175,19.691C42.726,19.45 699.871,19.465 701.325,19.691C710.244,21.077 716.281,23.356 720.929,27.093C721.482,27.537 721.958,27.9 721.987,27.9C722.017,27.9 722.266,27.343 722.54,26.663C723.734,23.706 725.747,20.25 728.042,17.219C728.684,16.37 730.293,14.595 731.618,13.275C733.598,11.301 736.343,8.366 741.288,2.935C741.818,2.353 741.819,2.349 741.375,2.627C736.424,5.73 732.511,7.665 727.125,9.672C717.356,13.314 704.725,15.835 691.05,16.872C689.359,17.001 687.705,17.148 687.375,17.2Z" style="fill:rgb(222,202,130);fill-rule:nonzero;"/>
    </g>
</svg>
